<svg width="66" height="84" viewBox="0 0 66 84" fill="none" xmlns="http://www.w3.org/2000/svg">
<path d="M11.2797 23.9565L36.5 -0.854172L61.7203 23.9565C66.7083 28.8635 70.1052 35.1155 71.4814 41.9218C72.8575 48.728 72.1512 55.7829 69.4517 62.1943C66.7521 68.6056 62.1806 74.0855 56.3153 77.9409C50.4499 81.7963 43.5542 83.8542 36.5 83.8542C29.4458 83.8542 22.5501 81.7963 16.6847 77.9409C10.8194 74.0855 6.2479 68.6056 3.54836 62.1943C0.848826 55.7829 0.142482 48.728 1.51865 41.9218C2.89482 35.1155 6.2917 28.8635 11.2797 23.9565Z" fill="#80E0F1"/>
<ellipse cx="36.5" cy="48.8659" rx="24.4035" ry="23.9393" fill="#FAFAFA"/>
<ellipse cx="36.5" cy="48.8659" rx="15.0175" ry="14.7319" stroke="#303030" stroke-width="2" stroke-linecap="round" stroke-dasharray="0.1 4"/>
</svg>
