<svg width="16" height="18" viewBox="0 0 16 18" fill="none" xmlns="http://www.w3.org/2000/svg">
<path d="M2.81448 5.39294L7.99996 0.291687L13.1854 5.39294C14.211 6.40187 14.9094 7.68732 15.1924 9.08674C15.4753 10.4862 15.3301 11.9367 14.7751 13.2549C14.22 14.5731 13.2801 15.6998 12.0741 16.4925C10.8682 17.2852 9.45035 17.7084 7.99996 17.7084C6.54957 17.7084 5.13175 17.2852 3.92579 16.4925C2.71983 15.6998 1.7799 14.5731 1.22485 13.2549C0.669809 11.9367 0.52458 10.4862 0.807531 9.08674C1.09048 7.68732 1.7889 6.40187 2.81448 5.39294Z" fill="#80E0F1"/>
<ellipse cx="7.99997" cy="10.5145" rx="5.01754" ry="4.9221" fill="#FAFAFA"/>
<circle cx="8.00004" cy="8.16667" r="1.16667" fill="#303030"/>
<circle cx="8.00004" cy="12.8334" r="1.16667" fill="#303030"/>
<circle cx="10.3333" cy="10.5" r="1.16667" fill="#303030"/>
<circle cx="5.66667" cy="10.5" r="1.16667" fill="#303030"/>
</svg>
