<svg width="28" height="27" viewBox="0 0 28 27" fill="none" xmlns="http://www.w3.org/2000/svg">
<path d="M20.6666 2.99999H26C26.3536 2.99999 26.6927 3.14047 26.9428 3.39052C27.1928 3.64057 27.3333 3.97971 27.3333 4.33333V25.6667C27.3333 26.0203 27.1928 26.3594 26.9428 26.6095C26.6927 26.8595 26.3536 27 26 27H1.99996C1.64634 27 1.3072 26.8595 1.05715 26.6095C0.807102 26.3594 0.666626 26.0203 0.666626 25.6667V4.33333C0.666626 3.97971 0.807102 3.64057 1.05715 3.39052C1.3072 3.14047 1.64634 2.99999 1.99996 2.99999H7.33329V0.333328H9.99996V2.99999H18V0.333328H20.6666V2.99999ZM18 5.66666H9.99996V8.33333H7.33329V5.66666H3.33329V11H24.6666V5.66666H20.6666V8.33333H18V5.66666ZM24.6666 13.6667H3.33329V24.3333H24.6666V13.6667Z" fill="#FF7C76"/>
</svg>
