<svg width="28" height="27" viewBox="0 0 28 27" fill="none" xmlns="http://www.w3.org/2000/svg">
<path d="M0.666626 13.6667H27.3333V25.6667C27.3333 26.0203 27.1928 26.3594 26.9428 26.6095C26.6927 26.8595 26.3536 27 26 27H1.99996C1.64634 27 1.3072 26.8595 1.05715 26.6095C0.807102 26.3594 0.666626 26.0203 0.666626 25.6667V13.6667ZM20.6666 3H26C26.3536 3 26.6927 3.14048 26.9428 3.39053C27.1928 3.64058 27.3333 3.97971 27.3333 4.33334V11H0.666626V4.33334C0.666626 3.97971 0.807102 3.64058 1.05715 3.39053C1.3072 3.14048 1.64634 3 1.99996 3H7.33329V0.333336H9.99996V3H18V0.333336H20.6666V3Z" fill="#FF7C76"/>
</svg>
