<svg width="19" height="20" viewBox="0 0 19 20" fill="none" xmlns="http://www.w3.org/2000/svg">
<path d="M1.80868 5.88421C2.57135 4.36551 3.74135 3.08884 5.18791 2.19689C6.63446 1.30493 8.30057 0.832839 10 0.833374C12.4704 0.833374 14.5458 1.74087 16.1325 3.22129L13.5044 5.85029C12.5538 4.94187 11.3457 4.47896 10 4.47896C7.61209 4.47896 5.59085 6.09229 4.87126 8.25838C4.68793 8.80838 4.58343 9.39504 4.58343 10C4.58343 10.605 4.68793 11.1917 4.87126 11.7417C5.59176 13.9087 7.61209 15.5211 10 15.5211C11.2329 15.5211 12.2825 15.1957 13.1038 14.6457C13.58 14.3322 13.9876 13.9254 14.3021 13.4499C14.6166 12.9744 14.8314 12.4401 14.9335 11.8792H10V8.33354H18.6332C18.7413 8.93304 18.8 9.55821 18.8 10.2081C18.8 13.0003 17.8008 15.3506 16.0665 16.9456C14.5503 18.3463 12.475 19.1667 10 19.1667C8.79609 19.1672 7.60388 18.9304 6.49151 18.4699C5.37914 18.0094 4.36842 17.3342 3.51712 16.4829C2.66582 15.6316 1.99063 14.6209 1.53013 13.5085C1.06964 12.3962 0.832862 11.204 0.833344 10C0.833344 8.52054 1.18718 7.12171 1.80868 5.88421Z" fill="#FF7C76"/>
</svg>
