<svg width="30" height="27" viewBox="0 0 30 27" fill="none" xmlns="http://www.w3.org/2000/svg">
<path d="M25.6667 25.6667C25.6667 26.0203 25.5262 26.3594 25.2762 26.6095C25.0261 26.8595 24.687 27 24.3334 27H5.66671C5.31309 27 4.97395 26.8595 4.7239 26.6095C4.47385 26.3594 4.33337 26.0203 4.33337 25.6667V13.6667H0.333374L14.1027 1.14933C14.3482 0.925965 14.6681 0.802185 15 0.802185C15.3319 0.802185 15.6519 0.925965 15.8974 1.14933L29.6667 13.6667H25.6667V25.6667ZM23 24.3333V11.2093L15 3.93733L7.00004 11.2093V24.3333H23ZM15 21.6667L10.5214 17.188C10.2428 16.9094 10.0218 16.5787 9.87105 16.2147C9.72029 15.8507 9.64269 15.4606 9.64269 15.0667C9.64269 14.6727 9.72029 14.2826 9.87105 13.9186C10.0218 13.5546 10.2428 13.2239 10.5214 12.9453C10.8 12.6667 11.1307 12.4458 11.4946 12.295C11.8586 12.1442 12.2487 12.0666 12.6427 12.0666C13.0367 12.0666 13.4268 12.1442 13.7908 12.295C14.1547 12.4458 14.4855 12.6667 14.764 12.9453L15 13.1813L15.236 12.9453C15.5146 12.6667 15.8453 12.4458 16.2093 12.295C16.5733 12.1442 16.9634 12.0666 17.3574 12.0666C17.7513 12.0666 18.1415 12.1442 18.5054 12.295C18.8694 12.4458 19.2001 12.6667 19.4787 12.9453C19.7573 13.2239 19.9783 13.5546 20.129 13.9186C20.2798 14.2826 20.3574 14.6727 20.3574 15.0667C20.3574 15.4606 20.2798 15.8507 20.129 16.2147C19.9783 16.5787 19.7573 16.9094 19.4787 17.188L15 21.6667Z" fill="#FF7C76"/>
</svg>
