<svg width="30" height="27" viewBox="0 0 30 27" fill="none" xmlns="http://www.w3.org/2000/svg">
<path d="M25.6667 25.6667C25.6667 26.0203 25.5262 26.3594 25.2762 26.6095C25.0261 26.8595 24.687 27 24.3334 27H5.66671C5.31309 27 4.97395 26.8595 4.7239 26.6095C4.47385 26.3594 4.33337 26.0203 4.33337 25.6667V13.6667H0.333374L14.1027 1.14934C14.3482 0.925973 14.6681 0.802193 15 0.802193C15.3319 0.802193 15.6519 0.925973 15.8974 1.14934L29.6667 13.6667H25.6667V25.6667ZM15 21.6667L19.4787 17.188C19.7573 16.9094 19.9783 16.5787 20.129 16.2147C20.2798 15.8507 20.3574 15.4606 20.3574 15.0667C20.3574 14.6727 20.2798 14.2826 20.129 13.9186C19.9783 13.5546 19.7573 13.2239 19.4787 12.9453C19.2001 12.6668 18.8694 12.4458 18.5054 12.295C18.1415 12.1442 17.7513 12.0666 17.3574 12.0666C16.9634 12.0666 16.5733 12.1442 16.2093 12.295C15.8453 12.4458 15.5146 12.6668 15.236 12.9453L15 13.1813L14.764 12.9453C14.4855 12.6668 14.1547 12.4458 13.7908 12.295C13.4268 12.1442 13.0367 12.0666 12.6427 12.0666C12.2487 12.0666 11.8586 12.1442 11.4946 12.295C11.1307 12.4458 10.8 12.6668 10.5214 12.9453C10.2428 13.2239 10.0218 13.5546 9.87105 13.9186C9.72029 14.2826 9.64269 14.6727 9.64269 15.0667C9.64269 15.4606 9.72029 15.8507 9.87105 16.2147C10.0218 16.5787 10.2428 16.9094 10.5214 17.188L15 21.6667Z" fill="#FF7C76"/>
</svg>
