

<svg width="28" height="27" viewBox="0 0 28 27" fill="none" xmlns="http://www.w3.org/2000/svg">
<path d="M15.3333 24V26.6667H12.6666V24H1.99996C1.64634 24 1.3072 23.8595 1.05715 23.6095C0.807102 23.3594 0.666626 23.0203 0.666626 22.6667V1.33334C0.666626 0.979715 0.807102 0.640576 1.05715 0.390528C1.3072 0.140479 1.64634 3.74485e-06 1.99996 3.74485e-06H9.99996C10.7567 -0.000894139 11.505 0.159679 12.1948 0.471C12.8846 0.782321 13.5 1.23723 14 1.80534C14.4999 1.23723 15.1154 0.782321 15.8051 0.471C16.4949 0.159679 17.2432 -0.000894139 18 3.74485e-06H26C26.3536 3.74485e-06 26.6927 0.140479 26.9428 0.390528C27.1928 0.640576 27.3333 0.979715 27.3333 1.33334V22.6667C27.3333 23.0203 27.1928 23.3594 26.9428 23.6095C26.6927 23.8595 26.3536 24 26 24H15.3333ZM24.6666 21.3333V2.66667H18C17.2927 2.66667 16.6144 2.94762 16.1143 3.44772C15.6142 3.94782 15.3333 4.62609 15.3333 5.33334V21.3333H24.6666ZM12.6666 21.3333V5.33334C12.6666 4.62609 12.3857 3.94782 11.8856 3.44772C11.3855 2.94762 10.7072 2.66667 9.99996 2.66667H3.33329V21.3333H12.6666Z" fill="#FF7C76"/>
</svg>
