<svg width="22" height="12" viewBox="0 0 22 12" fill="none" xmlns="http://www.w3.org/2000/svg">
<path d="M16 8.00001H11.659C11.1872 9.33444 10.2589 10.4591 9.03803 11.1753C7.81721 11.8914 6.38252 12.1529 4.98752 11.9136C3.59253 11.6743 2.32706 10.9495 1.41478 9.86733C0.502496 8.78519 0.00213623 7.41539 0.00213623 6.00001C0.00213623 4.58464 0.502496 3.21483 1.41478 2.13269C2.32706 1.05055 3.59253 0.325764 4.98752 0.086421C6.38252 -0.152922 7.81721 0.108595 9.03803 0.824749C10.2589 1.5409 11.1872 2.66558 11.659 4.00001H22V8.00001H20V12H16V8.00001ZM5.99999 8.00001C6.53042 8.00001 7.03913 7.7893 7.4142 7.41423C7.78928 7.03915 7.99999 6.53045 7.99999 6.00001C7.99999 5.46958 7.78928 4.96087 7.4142 4.5858C7.03913 4.21073 6.53042 4.00001 5.99999 4.00001C5.46956 4.00001 4.96085 4.21073 4.58578 4.5858C4.2107 4.96087 3.99999 5.46958 3.99999 6.00001C3.99999 6.53045 4.2107 7.03915 4.58578 7.41423C4.96085 7.7893 5.46956 8.00001 5.99999 8.00001V8.00001Z" fill="#767676"/>
</svg>
