<svg width="132" height="31" viewBox="0 0 132 31" fill="none" xmlns="http://www.w3.org/2000/svg">
<path d="M0 23.56V22.165H0.65101C1.08502 22.165 1.46736 22.1133 1.79803 22.01C2.14937 21.9067 2.42837 21.7 2.63504 21.39C2.84171 21.08 2.94505 20.615 2.94505 19.995V4.867C2.94505 4.26767 2.83138 3.82333 2.60404 3.534C2.39737 3.24467 2.11837 3.05867 1.76703 2.976C1.43636 2.87267 1.06435 2.821 0.65101 2.821H0V1.426H9.48615V2.821H8.83514C8.4218 2.821 8.03946 2.87267 7.68812 2.976C7.33678 3.07933 7.05778 3.286 6.85111 3.596C6.64444 3.88533 6.5411 4.35033 6.5411 4.991V11.191H16.0893V4.991C16.0893 4.35033 15.9859 3.88533 15.7793 3.596C15.5726 3.286 15.2936 3.07933 14.9422 2.976C14.6116 2.87267 14.2292 2.821 13.7952 2.821H13.1442V1.426H22.6304V2.821H21.9793C21.566 2.821 21.1837 2.87267 20.8323 2.976C20.481 3.07933 20.202 3.286 19.9953 3.596C19.7886 3.88533 19.6853 4.35033 19.6853 4.991V20.15C19.6853 20.7287 19.7886 21.1627 19.9953 21.452C20.2227 21.7413 20.5017 21.9377 20.8323 22.041C21.1837 22.1237 21.566 22.165 21.9793 22.165H22.6304V23.56H13.1442V22.165H13.7952C14.2292 22.165 14.6116 22.1133 14.9422 22.01C15.2936 21.9067 15.5726 21.7 15.7793 21.39C15.9859 21.08 16.0893 20.615 16.0893 19.995V12.834H6.5411V19.995C6.5411 20.615 6.64444 21.08 6.85111 21.39C7.05778 21.7 7.33678 21.9067 7.68812 22.01C8.03946 22.1133 8.4218 22.165 8.83514 22.165H9.48615V23.56H0Z" fill="black"/>
<path d="M29.3514 23.87C26.9954 23.87 25.1663 23.126 23.8643 21.638C22.583 20.15 21.9423 18.0627 21.9423 15.376C21.9423 12.462 22.5623 10.2713 23.8023 8.804C25.0423 7.33667 26.7887 6.603 29.0414 6.603C31.1081 6.603 32.7305 7.23333 33.9085 8.494C35.1072 9.734 35.7065 11.5837 35.7065 14.043V15.5H25.4454C25.4867 16.9673 25.6727 18.1763 26.0034 19.127C26.3547 20.057 26.8507 20.739 27.4914 21.173C28.1527 21.607 28.9587 21.824 29.9094 21.824C30.6328 21.824 31.2734 21.7207 31.8315 21.514C32.4101 21.2867 32.9061 21.0077 33.3195 20.677C33.7535 20.3257 34.0945 19.9537 34.3425 19.561C34.5285 19.6437 34.6835 19.7883 34.8075 19.995C34.9315 20.2017 34.9935 20.4497 34.9935 20.739C34.9935 21.1937 34.7868 21.669 34.3735 22.165C33.9808 22.6403 33.3608 23.0433 32.5135 23.374C31.6868 23.7047 30.6328 23.87 29.3514 23.87ZM32.1415 13.733C32.1415 12.6583 32.0381 11.718 31.8315 10.912C31.6248 10.106 31.2941 9.486 30.8394 9.052C30.3848 8.59733 29.7751 8.37 29.0104 8.37C28.3077 8.37 27.6981 8.57667 27.1814 8.99C26.6854 9.40333 26.2927 10.013 26.0034 10.819C25.7347 11.6043 25.5694 12.5757 25.5074 13.733H32.1415Z" fill="black"/>
<path d="M35.3011 23.56V22.165H35.7041C36.1381 22.165 36.5411 22.1133 36.9131 22.01C37.2851 21.9067 37.5848 21.7 37.8121 21.39C38.0395 21.08 38.1531 20.615 38.1531 19.995V3.441C38.1531 2.84167 38.0291 2.39733 37.7811 2.108C37.5538 1.81867 37.2541 1.63267 36.8821 1.55C36.5101 1.44667 36.1174 1.395 35.7041 1.395H35.3011V0H41.5632V19.995C41.5632 20.615 41.6769 21.08 41.9042 21.39C42.1315 21.7 42.4312 21.9067 42.8032 22.01C43.1959 22.1133 43.5989 22.165 44.0122 22.165H44.3842V23.56H35.3011Z" fill="black"/>
<path d="M43.1214 23.56V22.165H43.5245C43.9585 22.165 44.3615 22.1133 44.7335 22.01C45.1055 21.9067 45.4052 21.7 45.6325 21.39C45.8598 21.08 45.9735 20.615 45.9735 19.995V3.441C45.9735 2.84167 45.8495 2.39733 45.6015 2.108C45.3741 1.81867 45.0745 1.63267 44.7025 1.55C44.3305 1.44667 43.9378 1.395 43.5245 1.395H43.1214V0H49.3835V19.995C49.3835 20.615 49.4972 21.08 49.7246 21.39C49.9519 21.7 50.2516 21.9067 50.6236 22.01C51.0162 22.1133 51.4192 22.165 51.8326 22.165H52.2046V23.56H43.1214Z" fill="black"/>
<path d="M58.3199 23.87C56.0259 23.87 54.2175 23.157 52.8948 21.731C51.5721 20.305 50.9108 18.135 50.9108 15.221C50.9108 12.307 51.5411 10.1473 52.8018 8.742C54.0625 7.316 55.9329 6.603 58.4129 6.603C60.707 6.603 62.5153 7.316 63.838 8.742C65.1607 10.1473 65.822 12.307 65.822 15.221C65.822 18.135 65.1814 20.305 63.9 21.731C62.6393 23.157 60.7793 23.87 58.3199 23.87ZM58.3819 22.165C59.3533 22.165 60.1283 21.9067 60.707 21.39C61.2856 20.8733 61.699 20.0983 61.947 19.065C62.195 18.011 62.319 16.7297 62.319 15.221C62.319 13.6917 62.1847 12.4207 61.916 11.408C61.668 10.3953 61.2546 9.63067 60.676 9.114C60.0973 8.59733 59.3223 8.339 58.3509 8.339C57.3796 8.339 56.6046 8.59733 56.0259 9.114C55.4472 9.63067 55.0339 10.3953 54.7859 11.408C54.5379 12.4207 54.4139 13.6917 54.4139 15.221C54.4139 16.7297 54.5379 18.011 54.7859 19.065C55.0545 20.0983 55.4782 20.8733 56.0569 21.39C56.6356 21.9067 57.4106 22.165 58.3819 22.165Z" fill="black"/>
<path d="M65.5625 23.56V22.165H66.2135C66.6475 22.165 67.0299 22.1133 67.3605 22.01C67.7119 21.9067 67.9909 21.7 68.1975 21.39C68.4042 21.08 68.5075 20.615 68.5075 19.995V4.991C68.5075 4.35033 68.4042 3.88533 68.1975 3.596C67.9909 3.286 67.7119 3.07933 67.3605 2.976C67.0299 2.87267 66.6475 2.821 66.2135 2.821H65.5625V1.426H75.0487V2.821H74.3976C73.9843 2.821 73.602 2.87267 73.2506 2.976C72.9199 3.05867 72.6513 3.24467 72.4446 3.534C72.2379 3.82333 72.1346 4.26767 72.1346 4.867V21.917H78.1487C78.7274 21.917 79.2027 21.793 79.5747 21.545C79.9467 21.2763 80.2257 20.9353 80.4117 20.522C80.5977 20.088 80.7321 19.6333 80.8147 19.158L81.1867 16.833H82.8298L82.6128 23.56H65.5625Z" fill="#FF7C76"/>
<path d="M88.6838 23.87C87.7744 23.87 86.9478 23.6943 86.2037 23.343C85.4804 22.971 84.9121 22.4233 84.4987 21.7C84.0854 20.956 83.8787 20.0157 83.8787 18.879C83.8787 17.2257 84.4574 16.0063 85.6147 15.221C86.7721 14.415 88.5391 13.9707 90.9158 13.888L93.4579 13.795V11.997C93.4579 11.253 93.3959 10.602 93.2719 10.044C93.1685 9.486 92.9308 9.052 92.5588 8.742C92.1868 8.41133 91.6185 8.246 90.8538 8.246C90.1305 8.246 89.5725 8.39067 89.1798 8.68C88.8078 8.96933 88.5494 9.37234 88.4048 9.889C88.2808 10.385 88.2188 10.9637 88.2188 11.625C87.2268 11.625 86.4724 11.4803 85.9557 11.191C85.4391 10.881 85.1807 10.3643 85.1807 9.641C85.1807 8.897 85.4391 8.308 85.9557 7.874C86.4931 7.44 87.1958 7.11967 88.0638 6.913C88.9524 6.70633 89.9238 6.603 90.9778 6.603C92.9412 6.603 94.4085 7.006 95.3799 7.812C96.3719 8.618 96.8679 9.99234 96.8679 11.935V19.933C96.8679 20.5117 96.9299 20.9663 97.0539 21.297C97.1779 21.607 97.3846 21.8343 97.6739 21.979C97.9633 22.103 98.3353 22.165 98.7899 22.165H98.8829V23.56H94.2639L93.7369 21.049H93.4579C93.0238 21.607 92.6002 22.103 92.1868 22.537C91.7735 22.9503 91.2982 23.281 90.7608 23.529C90.2235 23.7563 89.5311 23.87 88.6838 23.87ZM89.6758 21.855C90.4611 21.855 91.1328 21.6897 91.6908 21.359C92.2488 21.0077 92.6828 20.5117 92.9928 19.871C93.3028 19.2303 93.4579 18.4863 93.4579 17.639V15.19L91.6288 15.283C90.5541 15.3243 89.7068 15.5 89.0868 15.81C88.4668 16.0993 88.0224 16.5127 87.7538 17.05C87.5058 17.5873 87.3818 18.2487 87.3818 19.034C87.3818 19.654 87.4644 20.181 87.6298 20.615C87.7951 21.0283 88.0431 21.3383 88.3738 21.545C88.7251 21.7517 89.1591 21.855 89.6758 21.855Z" fill="#FF7C76"/>
<path d="M104.688 23.87C103.324 23.87 102.166 23.5703 101.215 22.971C100.285 22.3717 99.5725 21.4417 99.0764 20.181C98.6011 18.8997 98.3634 17.267 98.3634 15.283C98.3634 13.2783 98.6011 11.6457 99.0764 10.385C99.5725 9.10367 100.285 8.153 101.215 7.533C102.166 6.913 103.313 6.603 104.657 6.603C105.835 6.603 106.796 6.851 107.54 7.347C108.304 7.843 108.914 8.48367 109.369 9.269H109.555C109.513 8.91767 109.472 8.53533 109.431 8.122C109.41 7.70867 109.389 7.29533 109.369 6.882C109.369 6.46867 109.369 6.09667 109.369 5.766V3.441C109.369 2.84167 109.245 2.39733 108.997 2.108C108.769 1.81867 108.459 1.63267 108.067 1.55C107.695 1.44667 107.281 1.395 106.827 1.395H106.579V0H112.779V20.026C112.779 20.646 112.892 21.111 113.12 21.421C113.368 21.731 113.678 21.9377 114.05 22.041C114.442 22.1237 114.866 22.165 115.321 22.165H115.538V23.56H110.082L109.586 20.863H109.431C108.976 21.793 108.377 22.5267 107.633 23.064C106.889 23.6013 105.907 23.87 104.688 23.87ZM105.432 21.793C106.92 21.793 107.943 21.2557 108.501 20.181C109.079 19.1063 109.369 17.4633 109.369 15.252C109.369 13.8467 109.245 12.6583 108.997 11.687C108.749 10.695 108.335 9.951 107.757 9.455C107.199 8.93833 106.413 8.68 105.401 8.68C104.553 8.68 103.871 8.93833 103.355 9.455C102.838 9.97167 102.456 10.7157 102.207 11.687C101.959 12.6583 101.835 13.8673 101.835 15.314C101.835 16.7607 101.959 17.9697 102.207 18.941C102.456 19.8917 102.838 20.6047 103.355 21.08C103.892 21.5553 104.584 21.793 105.432 21.793Z" fill="#FF7C76"/>
<path d="M115.445 29.45C116.499 29.45 117.409 29.295 118.173 28.985C118.938 28.6957 119.589 28.2823 120.127 27.745C120.664 27.2283 121.108 26.6083 121.46 25.885C121.832 25.1617 122.142 24.366 122.39 23.498L116.685 9.951C116.52 9.517 116.334 9.19667 116.127 8.99C115.941 8.76267 115.724 8.60767 115.476 8.525C115.249 8.44233 114.939 8.401 114.546 8.401H114.453V6.944H122.266V8.339H122.173C121.573 8.339 121.108 8.45267 120.778 8.68C120.468 8.88667 120.313 9.238 120.313 9.734C120.313 9.89933 120.333 10.0853 120.375 10.292C120.437 10.478 120.509 10.6847 120.592 10.912L122.824 16.461C122.968 16.8123 123.103 17.1843 123.227 17.577C123.371 17.9697 123.506 18.352 123.63 18.724C123.754 19.096 123.857 19.4473 123.94 19.778C124.043 20.1087 124.105 20.3877 124.126 20.615C124.25 20.057 124.415 19.4783 124.622 18.879C124.849 18.259 125.045 17.701 125.211 17.205L127.288 11.16C127.391 10.9327 127.463 10.695 127.505 10.447C127.546 10.1783 127.567 9.96134 127.567 9.796C127.567 9.27934 127.391 8.90733 127.04 8.68C126.688 8.45267 126.172 8.339 125.49 8.339H125.397V6.944H132V8.339H131.907C131.514 8.339 131.183 8.41133 130.915 8.556C130.646 8.68 130.408 8.91767 130.202 9.269C129.995 9.59967 129.778 10.0853 129.551 10.726L124.839 23.653C124.301 25.1617 123.785 26.3913 123.289 27.342C122.793 28.2927 122.235 29.0367 121.615 29.574C120.995 30.1113 120.22 30.4833 119.289 30.69C118.359 30.8967 117.192 31 115.786 31H115.445V29.45Z" fill="#FF7C76"/>
</svg>
