<svg width="16" height="18" viewBox="0 0 16 18" fill="none" xmlns="http://www.w3.org/2000/svg">
<path fill-rule="evenodd" clip-rule="evenodd" d="M2.81452 5.393L8 0.291748L13.1855 5.393C14.211 6.40193 14.9095 7.68738 15.1924 9.0868C15.4754 10.4862 15.3301 11.9368 14.7751 13.255C14.2201 14.5732 13.2801 15.6999 12.0742 16.4926C10.8682 17.2853 9.45039 17.7084 8 17.7084C6.54961 17.7084 5.13179 17.2853 3.92583 16.4926C2.71987 15.6999 1.77994 14.5732 1.2249 13.255C0.669851 11.9368 0.524622 10.4862 0.807572 9.0868C1.09052 7.68738 1.78895 6.40193 2.81452 5.393ZM8.00008 4.39603L4.76202 7.52358L4.76202 7.52358C4.12504 8.13883 3.69404 8.91982 3.51968 9.7665C3.34535 10.613 3.4346 11.4907 3.77722 12.2896C4.11994 13.0888 4.70198 13.7757 5.45346 14.2607C6.2052 14.7458 7.09148 15.0062 8.00008 15.0062C8.90868 15.0062 9.79496 14.7458 10.5467 14.2607C11.2982 13.7757 11.8802 13.0888 12.2229 12.2896C12.5656 11.4907 12.6548 10.613 12.4805 9.7665C12.3061 8.91982 11.8751 8.13883 11.2381 7.52358L11.2381 7.52358L8.00008 4.39603ZM8.00008 2.27065L3.67885 6.4444C2.8242 7.26989 2.24218 8.32162 2.00639 9.4666C1.7706 10.6116 1.89162 11.7984 2.35416 12.8769C2.8167 13.9555 3.59997 14.8773 4.60494 15.5259C5.6099 16.1745 6.79142 16.5206 8.00008 16.5206C9.20874 16.5206 10.3903 16.1745 11.3952 15.5259C12.4002 14.8773 13.1835 13.9555 13.646 12.8769C14.1085 11.7984 14.2296 10.6116 13.9938 9.4666C13.758 8.32162 13.176 7.26989 12.3213 6.4444L8.00008 2.27065ZM7.03944 9.98075L7.99997 9.09718L8.9605 9.98075L8.96051 9.98076C9.13674 10.1429 9.24435 10.3373 9.28677 10.5335C9.32898 10.7287 9.30838 10.9323 9.22252 11.1229C9.13601 11.3151 8.98217 11.4951 8.76466 11.6288C8.54629 11.763 8.27994 11.8398 7.99997 11.8398C7.71999 11.8398 7.45364 11.763 7.23528 11.6288C7.01777 11.4951 6.86392 11.3151 6.77742 11.1229C6.69155 10.9323 6.67095 10.7287 6.71317 10.5335C6.75559 10.3373 6.86319 10.1429 7.03943 9.98076L7.03944 9.98075ZM7.99997 7.021L5.98339 8.876C5.58456 9.24288 5.31295 9.71032 5.20291 10.2192C5.09287 10.7281 5.14935 11.2555 5.3652 11.7349C5.58105 12.2143 5.94658 12.624 6.41557 12.9122C6.88455 13.2005 7.43593 13.3543 7.99997 13.3543C8.56401 13.3543 9.11538 13.2005 9.58437 12.9122C10.0534 12.624 10.4189 12.2143 10.6347 11.7349C10.8506 11.2555 10.9071 10.7281 10.797 10.2192C10.687 9.71032 10.4154 9.24288 10.0165 8.876L7.99997 7.021Z" fill="#EDB3AD"/>
</svg>
