<svg width="28" height="28" viewBox="0 0 28 28" fill="none" xmlns="http://www.w3.org/2000/svg">
<path d="M21 11.6666C21 9.81013 20.2625 8.02965 18.9498 6.7169C17.637 5.40414 15.8565 4.66665 14 4.66665C12.1435 4.66665 10.363 5.40414 9.05026 6.7169C7.73751 8.02965 7.00001 9.81013 7.00001 11.6666V21H21V11.6666ZM23.3333 21.7781L23.8 22.4C23.865 22.4866 23.9046 22.5897 23.9143 22.6976C23.924 22.8055 23.9035 22.914 23.8551 23.0109C23.8066 23.1077 23.7322 23.1892 23.64 23.2462C23.5479 23.3031 23.4417 23.3333 23.3333 23.3333H4.66668C4.55835 23.3333 4.45215 23.3031 4.36 23.2462C4.26785 23.1892 4.19338 23.1077 4.14493 23.0109C4.09648 22.914 4.07597 22.8055 4.0857 22.6976C4.09543 22.5897 4.13501 22.4866 4.20001 22.4L4.66668 21.7781V11.6666C4.66668 9.19129 5.65001 6.81732 7.40035 5.06698C9.15069 3.31664 11.5247 2.33331 14 2.33331C16.4754 2.33331 18.8493 3.31664 20.5997 5.06698C22.35 6.81732 23.3333 9.19129 23.3333 11.6666V21.7781ZM11.0833 24.5H16.9167C16.9167 25.2735 16.6094 26.0154 16.0624 26.5624C15.5154 27.1094 14.7736 27.4166 14 27.4166C13.2265 27.4166 12.4846 27.1094 11.9376 26.5624C11.3906 26.0154 11.0833 25.2735 11.0833 24.5Z" fill="#FF7C76"/>
</svg>
