<svg width="28" height="28" viewBox="0 0 28 28" fill="none" xmlns="http://www.w3.org/2000/svg">
    <path fill-rule="evenodd" clip-rule="evenodd" d="M20.7736 8.92524C20.8681 9.38518 20.9167 9.85675 20.9167 10.3333V19.6667H6.91667V10.3333C6.91667 8.47682 7.65416 6.69634 8.96692 5.38359C10.2797 4.07083 12.0602 3.33333 13.9167 3.33333C14.7046 3.33333 15.4788 3.46617 16.2094 3.71944C16.4752 2.9323 16.9793 2.25489 17.6359 1.77305C16.4733 1.26794 15.2088 1 13.9167 1C11.4413 1 9.06734 1.98333 7.317 3.73367C5.56666 5.48401 4.58333 7.85798 4.58333 10.3333V20.4448L4.11667 21.0667C4.05167 21.1533 4.01209 21.2564 4.00236 21.3643C3.99263 21.4722 4.01314 21.5806 4.06158 21.6775C4.11003 21.7744 4.1845 21.8559 4.27666 21.9129C4.36881 21.9698 4.475 22 4.58333 22H23.25C23.3583 22 23.4645 21.9698 23.5567 21.9129C23.6488 21.8559 23.7233 21.7744 23.7717 21.6775C23.8202 21.5806 23.8407 21.4722 23.831 21.3643C23.8212 21.2564 23.7817 21.1533 23.7167 21.0667L23.25 20.4448V10.3333C23.25 9.457 23.1268 8.59337 22.8899 7.76562C22.3313 8.3491 21.5978 8.76374 20.7736 8.92524ZM15.9791 25.2291C16.526 24.6821 16.8333 23.9402 16.8333 23.1667H11C11 23.9402 11.3073 24.6821 11.8543 25.2291C12.4013 25.776 13.1431 26.0833 13.9167 26.0833C14.6902 26.0833 15.4321 25.776 15.9791 25.2291Z" fill="#FF7C76" />
    <circle cx="20" cy="5" r="2.5" fill="#FF7C76" />
</svg>