<svg width="24" height="28" viewBox="0 0 24 28" fill="none" xmlns="http://www.w3.org/2000/svg">
<path fill-rule="evenodd" clip-rule="evenodd" d="M1.53848 10.9695C2.01996 10.9695 2.41028 11.3766 2.41028 11.8786L2.41028 16.1211C2.41028 16.6231 2.01996 17.0302 1.53848 17.0302C1.057 17.0302 0.666688 16.6231 0.666688 16.1211L0.666688 11.8786C0.666688 11.3766 1.057 10.9695 1.53848 10.9695Z" fill="#FF7C76"/>
<path fill-rule="evenodd" clip-rule="evenodd" d="M5.02567 4.30286C5.50714 4.30286 5.89746 4.70987 5.89746 5.21195L5.89746 22.7877C5.89746 23.2898 5.50715 23.6968 5.02567 23.6968C4.54419 23.6968 4.15387 23.2898 4.15387 22.7877L4.15387 5.21195C4.15387 4.70987 4.54419 4.30286 5.02567 4.30286Z" fill="#EDB3AD"/>
<path fill-rule="evenodd" clip-rule="evenodd" d="M18.9744 4.30286C19.4559 4.30286 19.8462 4.70987 19.8462 5.21195L19.8462 22.7877C19.8462 23.2898 19.4559 23.6968 18.9744 23.6968C18.4929 23.6968 18.1026 23.2898 18.1026 22.7877L18.1026 5.21195C18.1026 4.70987 18.4929 4.30286 18.9744 4.30286Z" fill="#EDB3AD"/>
<path fill-rule="evenodd" clip-rule="evenodd" d="M8.51285 8.54544C8.99433 8.54544 9.38464 8.95245 9.38464 9.45453L9.38464 18.5454C9.38464 19.0475 8.99433 19.4545 8.51285 19.4545C8.03137 19.4545 7.64106 19.0475 7.64106 18.5454L7.64105 9.45453C7.64105 8.95245 8.03137 8.54544 8.51285 8.54544Z" fill="#FF7C76"/>
<path fill-rule="evenodd" clip-rule="evenodd" d="M15.4872 8.54544C15.9687 8.54544 16.359 8.95245 16.359 9.45453L16.359 18.5454C16.359 19.0475 15.9687 19.4545 15.4872 19.4545C15.0057 19.4545 14.6154 19.0475 14.6154 18.5454L14.6154 9.45453C14.6154 8.95245 15.0057 8.54544 15.4872 8.54544Z" fill="#FF7C76"/>
<path fill-rule="evenodd" clip-rule="evenodd" d="M22.4616 10.9695C22.9431 10.9695 23.3334 11.3766 23.3334 11.8786L23.3334 16.1211C23.3334 16.6231 22.9431 17.0302 22.4616 17.0302C21.9801 17.0302 21.5898 16.6231 21.5898 16.1211L21.5898 11.8786C21.5898 11.3766 21.9801 10.9695 22.4616 10.9695Z" fill="#FF7C76"/>
<path fill-rule="evenodd" clip-rule="evenodd" d="M12 0.666657C12.4815 0.666657 12.8718 1.07367 12.8718 1.57575L12.8718 26.4242C12.8718 26.9263 12.4815 27.3333 12 27.3333C11.5186 27.3333 11.1282 26.9263 11.1282 26.4242L11.1282 1.57575C11.1282 1.07367 11.5186 0.666657 12 0.666657Z" fill="#EDB3AD"/>
</svg>
