<svg width="28" height="28" viewBox="0 0 28 28" fill="none" xmlns="http://www.w3.org/2000/svg">
<path d="M14 25.6666C7.55651 25.6666 2.33334 20.4435 2.33334 14C2.33334 7.55648 7.55651 2.33331 14 2.33331C20.4435 2.33331 25.6667 7.55648 25.6667 14C25.6667 20.4435 20.4435 25.6666 14 25.6666ZM8.18184 21.2986C9.83332 22.619 11.8856 23.3367 14 23.3333C16.2983 23.3333 18.4018 22.5026 20.0282 21.126C19.2684 20.3463 18.3599 19.727 17.3566 19.3046C16.3532 18.8822 15.2753 18.6652 14.1867 18.6666C13.058 18.6653 11.9414 18.8986 10.9077 19.3517C9.87401 19.8048 8.94575 20.4678 8.18184 21.2986ZM6.55201 19.6233C7.53254 18.5827 8.71579 17.754 10.0288 17.1882C11.3419 16.6223 12.7569 16.3314 14.1867 16.3333C15.5653 16.3315 16.9306 16.6021 18.2044 17.1294C19.4781 17.6568 20.6351 18.4306 21.609 19.4063C22.6078 18.0006 23.1976 16.3457 23.313 14.6252C23.4284 12.9047 23.065 11.1858 22.2629 9.65934C21.4609 8.13284 20.2516 6.85837 18.7693 5.97733C17.287 5.09629 15.5896 4.64312 13.8654 4.66811C12.1412 4.69309 10.4576 5.19525 9.00145 6.11886C7.54529 7.04248 6.37346 8.35145 5.61598 9.90055C4.85851 11.4496 4.54499 13.1783 4.71021 14.8948C4.87544 16.6112 5.51295 18.2483 6.55201 19.6245V19.6233ZM14 15.1666C12.7623 15.1666 11.5753 14.675 10.7002 13.7998C9.82501 12.9246 9.33334 11.7377 9.33334 10.5C9.33334 9.2623 9.82501 8.07532 10.7002 7.20015C11.5753 6.32498 12.7623 5.83331 14 5.83331C15.2377 5.83331 16.4247 6.32498 17.2998 7.20015C18.175 8.07532 18.6667 9.2623 18.6667 10.5C18.6667 11.7377 18.175 12.9246 17.2998 13.7998C16.4247 14.675 15.2377 15.1666 14 15.1666ZM14 12.8333C14.6188 12.8333 15.2123 12.5875 15.6499 12.1499C16.0875 11.7123 16.3333 11.1188 16.3333 10.5C16.3333 9.88114 16.0875 9.28765 15.6499 8.85006C15.2123 8.41248 14.6188 8.16665 14 8.16665C13.3812 8.16665 12.7877 8.41248 12.3501 8.85006C11.9125 9.28765 11.6667 9.88114 11.6667 10.5C11.6667 11.1188 11.9125 11.7123 12.3501 12.1499C12.7877 12.5875 13.3812 12.8333 14 12.8333Z" fill="#FF7C76"/>
</svg>
